<?xml version="1.0" encoding="utf-8"?>
<!-- Generator: Adobe Illustrator 23.0.1, SVG Export Plug-In . SVG Version: 6.00 Build 0)  -->
<svg version="1.1" id="Layer_1" xmlns="http://www.w3.org/2000/svg" xmlns:xlink="http://www.w3.org/1999/xlink" x="0px" y="0px"
	 width="200px" height="200px" viewBox="0 0 200 200" style="enable-background:new 0 0 200 200;" xml:space="preserve">
<style type="text/css">
	.st0{fill:url(#SVGID_1_);}
	.st1{fill:url(#SVGID_2_);}
	.st2{fill:#FFFFFF;}
</style>
<g>
	<radialGradient id="SVGID_1_" cx="92.6738" cy="66.8706" r="87.2103" gradientUnits="userSpaceOnUse">
		<stop  offset="0" style="stop-color:#D0E3F1"/>
		<stop  offset="1" style="stop-color:#008CC2"/>
	</radialGradient>
	<path class="st0" d="M80.8,37c0,9.8,8.6,18.8,22.7,26.5s26.9,8.1,33.4,23.5c6.4,15.4,3.8,25.7,3,30.4c0,0,20.1-18.8,20.1-40.2
		c0-28.2-14.5-60.4-56.4-60.4C79.7,16.8,80.8,37,80.8,37z"/>
	<radialGradient id="SVGID_2_" cx="92.6738" cy="66.8706" r="87.2103" gradientUnits="userSpaceOnUse">
		<stop  offset="0" style="stop-color:#D0E3F1"/>
		<stop  offset="1" style="stop-color:#008CC2"/>
	</radialGradient>
	<path class="st1" d="M67.6,24.6c0,0-25.7,18-25.7,46.6s16.7,62.4,56.4,62.4c20.1,0,28.2-12,28.2-24.8s-4.3-19.2-12.8-25.7
		c-8.6-6.4-32.5-6.4-40.6-20.1S66.7,34.8,67.6,24.6z"/>
	<g>
		<path class="st2" d="M39.9,182.6l-9.7-25.5h4.6l5.5,15.3c0.6,1.7,1.1,3.4,1.6,5.1c0.4-1.3,0.9-3,1.6-4.9l5.7-15.6h4.4l-9.7,25.5
			H39.9z"/>
		<path class="st2" d="M57.4,152.3v-5h4.3v5H57.4z M57.4,182.6v-25.5h4.3v25.5H57.4z"/>
		<path class="st2" d="M68.4,182.6v-25.5h3.9v3.6c1.9-2.8,4.6-4.2,8.1-4.2c1.5,0,3,0.3,4.2,0.8c1.3,0.6,2.3,1.3,2.9,2.2
			c0.6,0.9,1.1,2,1.3,3.2c0.2,0.8,0.2,2.2,0.2,4.2v15.7h-4.3v-15.5c0-1.8-0.2-3.1-0.5-4c-0.3-0.9-0.9-1.6-1.8-2.1
			c-0.9-0.5-1.9-0.8-3-0.8c-1.8,0-3.4,0.6-4.8,1.8c-1.3,1.2-2,3.4-2,6.7v14H68.4z"/>
		<path class="st2" d="M112.4,179.5c-1.6,1.4-3.1,2.3-4.6,2.9c-1.5,0.6-3.1,0.8-4.8,0.8c-2.8,0-5-0.7-6.5-2.1
			c-1.5-1.4-2.3-3.1-2.3-5.3c0-1.3,0.3-2.4,0.9-3.4c0.6-1,1.3-1.9,2.2-2.5c0.9-0.6,2-1.1,3.1-1.4c0.8-0.2,2.1-0.4,3.8-0.6
			c3.5-0.4,6.1-0.9,7.7-1.5c0-0.6,0-1,0-1.1c0-1.8-0.4-3-1.2-3.7c-1.1-1-2.8-1.5-4.9-1.5c-2,0-3.5,0.4-4.5,1.1c-1,0.7-1.7,2-2.2,3.8
			l-4.2-0.6c0.4-1.8,1-3.3,1.9-4.4c0.9-1.1,2.2-2,3.8-2.6c1.7-0.6,3.6-0.9,5.8-0.9c2.2,0,4,0.3,5.3,0.8c1.4,0.5,2.4,1.2,3,1.9
			s1.1,1.8,1.3,2.9c0.1,0.7,0.2,2.1,0.2,4v5.8c0,4,0.1,6.6,0.3,7.6c0.2,1.1,0.5,2.1,1.1,3.1h-4.5
			C112.8,181.7,112.6,180.7,112.4,179.5z M112.1,169.8c-1.6,0.6-3.9,1.2-7.1,1.6c-1.8,0.3-3,0.5-3.8,0.9c-0.7,0.3-1.3,0.8-1.7,1.4
			c-0.4,0.6-0.6,1.3-0.6,2.1c0,1.2,0.4,2.1,1.3,2.9c0.9,0.8,2.2,1.2,3.8,1.2c1.7,0,3.2-0.4,4.4-1.1c1.3-0.7,2.3-1.7,2.9-3
			c0.5-1,0.7-2.4,0.7-4.3V169.8z"/>
		<path class="st2" d="M121.4,175l4.3-0.7c0.2,1.7,0.9,3,2,3.9c1.1,0.9,2.6,1.4,4.6,1.4c2,0,3.5-0.4,4.4-1.2c1-0.8,1.4-1.8,1.4-2.9
			c0-1-0.4-1.7-1.3-2.3c-0.6-0.4-2.1-0.9-4.4-1.5c-3.2-0.8-5.4-1.5-6.6-2.1c-1.2-0.6-2.2-1.4-2.8-2.4c-0.6-1-1-2.2-1-3.4
			c0-1.1,0.3-2.2,0.8-3.2c0.5-1,1.2-1.8,2.1-2.4c0.7-0.5,1.6-0.9,2.8-1.3c1.2-0.3,2.4-0.5,3.7-0.5c2,0,3.8,0.3,5.3,0.9
			c1.5,0.6,2.6,1.4,3.4,2.3c0.7,1,1.2,2.3,1.5,4l-4.2,0.6c-0.2-1.3-0.7-2.3-1.7-3.1c-0.9-0.7-2.2-1.1-3.9-1.1c-2,0-3.4,0.3-4.3,1
			c-0.9,0.7-1.3,1.4-1.3,2.3c0,0.6,0.2,1.1,0.5,1.5c0.4,0.5,0.9,0.8,1.7,1.2c0.4,0.2,1.7,0.5,3.8,1.1c3.1,0.8,5.2,1.5,6.4,2
			c1.2,0.5,2.2,1.3,2.9,2.3c0.7,1,1,2.2,1,3.7c0,1.4-0.4,2.8-1.3,4.1c-0.8,1.3-2.1,2.3-3.6,3c-1.6,0.7-3.4,1-5.4,1
			c-3.3,0-5.8-0.7-7.6-2.1C123,179.7,121.9,177.7,121.4,175z"/>
		<path class="st2" d="M164.5,179.5c-1.6,1.4-3.1,2.3-4.6,2.9c-1.5,0.6-3.1,0.8-4.8,0.8c-2.8,0-5-0.7-6.5-2.1
			c-1.5-1.4-2.3-3.1-2.3-5.3c0-1.3,0.3-2.4,0.9-3.4s1.3-1.9,2.2-2.5c0.9-0.6,2-1.1,3.1-1.4c0.9-0.2,2.1-0.4,3.8-0.6
			c3.5-0.4,6.1-0.9,7.7-1.5c0-0.6,0-1,0-1.1c0-1.8-0.4-3-1.2-3.7c-1.1-1-2.8-1.5-4.9-1.5c-2,0-3.5,0.4-4.5,1.1c-1,0.7-1.7,2-2.2,3.8
			l-4.2-0.6c0.4-1.8,1-3.3,1.9-4.4c0.9-1.1,2.2-2,3.8-2.6c1.7-0.6,3.6-0.9,5.8-0.9c2.2,0,4,0.3,5.3,0.8c1.4,0.5,2.4,1.2,3,1.9
			c0.6,0.8,1.1,1.8,1.3,2.9c0.1,0.7,0.2,2.1,0.2,4v5.8c0,4,0.1,6.6,0.3,7.6c0.2,1.1,0.5,2.1,1.1,3.1h-4.5
			C164.9,181.7,164.6,180.7,164.5,179.5z M164.1,169.8c-1.6,0.6-3.9,1.2-7.1,1.6c-1.8,0.3-3,0.5-3.8,0.9c-0.7,0.3-1.3,0.8-1.7,1.4
			c-0.4,0.6-0.6,1.3-0.6,2.1c0,1.2,0.4,2.1,1.3,2.9c0.9,0.8,2.2,1.2,3.8,1.2c1.7,0,3.2-0.4,4.4-1.1c1.3-0.7,2.3-1.7,2.9-3
			c0.5-1,0.7-2.4,0.7-4.3V169.8z"/>
	</g>
</g>
</svg>
